<svg width="26" height="30" viewBox="0 0 26 30" fill="none" xmlns="http://www.w3.org/2000/svg"> <path fill-rule="evenodd" clip-rule="evenodd" d="M0 27.5001C0 28.8813 1.12486 30 2.51357 30H22.6214C24.0101 30 25.1351 28.8813 25.1351 27.5001V15C25.1351 13.6187 24.0101 12.5 22.6214 12.5H7.54057V8.12502C7.54057 5.36257 9.79008 3.12492 12.5675 3.12492C15.3449 3.12492 17.5946 5.36257 17.5946 8.12502V12.5C18.9322 12.5 19.8277 12.5 20.7365 12.5V8.12502C20.7365 3.63762 17.079 0 12.5676 0C8.05541 0 4.39873 3.63762 4.39873 8.12502V12.5H2.51364C1.12493 12.5 6.91244e-05 13.6187 6.91244e-05 15L0 27.5001ZM10.054 19.375C10.054 17.9938 11.1788 16.8751 12.5675 16.8751C13.9562 16.8751 15.0809 17.9938 15.0809 19.375C15.0809 20.2564 14.6221 21.0315 13.9311 21.4752C13.9311 21.4752 14.1766 22.9505 14.4527 24.6877C14.4527 25.2062 14.0317 25.6249 13.5101 25.6249H11.6249C11.1033 25.6249 10.6824 25.2062 10.6824 24.6877L11.204 21.4752C10.513 21.0315 10.054 20.2563 10.054 19.375Z" fill="#FF0000"/> </svg>
