<svg width="35" height="35" viewBox="0 0 35 35" fill="none" xmlns="http://www.w3.org/2000/svg">
<rect x="1" y="1" width="10.1154" height="10.1154" stroke="#007AFF" stroke-width="2"/>
<rect x="4.03857" y="4.03845" width="4.03846" height="4.03846" fill="#007AFF"/>
<rect x="1" y="23.8846" width="10.1154" height="10.1154" stroke="#007AFF" stroke-width="2"/>
<rect x="4.03857" y="26.9231" width="4.03846" height="4.03846" fill="#007AFF"/>
<rect x="23.8845" y="1" width="10.1154" height="10.1154" stroke="#007AFF" stroke-width="2"/>
<rect x="26.9231" y="4.03845" width="4.03846" height="4.03846" fill="#007AFF"/>
<rect x="14.8076" width="2.69231" height="2.69231" fill="#007AFF"/>
<rect x="14.8076" y="21.5385" width="2.69231" height="2.69231" fill="#007AFF"/>
<rect x="17.5" y="32.3077" width="2.69231" height="2.69231" fill="#007AFF"/>
<rect x="32.3076" y="32.3077" width="2.69231" height="2.69231" fill="#007AFF"/>
<rect x="22.8845" y="24.2307" width="2.69231" height="2.69231" fill="#007AFF"/>
<rect x="25.5769" y="26.9231" width="2.69231" height="5.38462" fill="#007AFF"/>
<rect x="22.8845" y="29.6154" width="2.69231" height="5.38462" fill="#007AFF"/>
<rect x="14.8076" y="26.9231" width="2.69231" height="5.38462" fill="#007AFF"/>
<rect x="17.5" y="2.69226" width="2.69231" height="5.38462" fill="#007AFF"/>
<rect x="17.5" y="10.7693" width="2.69231" height="4.03846" fill="#007AFF"/>
<rect x="17.5" y="24.2307" width="5.38462" height="5.38462" fill="#007AFF"/>
<rect x="28.2693" y="24.2307" width="6.73077" height="5.38462" fill="#007AFF"/>
<rect x="14.8076" y="5.38464" width="2.69231" height="5.38462" fill="#007AFF"/>
<rect y="14.8077" width="2.69231" height="2.69231" fill="#007AFF"/>
<rect x="2.69238" y="17.5" width="5.38462" height="2.69231" fill="#007AFF"/>
<rect x="20.1924" y="17.5" width="4.03846" height="2.69231" fill="#007AFF"/>
<rect x="10.7693" y="17.5" width="6.73077" height="2.69231" fill="#007AFF"/>
<rect x="26.9231" y="17.5" width="8.07692" height="2.69231" fill="#007AFF"/>
<rect x="22.8845" y="21.5385" width="9.42308" height="2.69231" fill="#007AFF"/>
<rect x="5.38452" y="14.8077" width="21.5385" height="2.69231" fill="#007AFF"/>
<rect x="29.6155" y="14.8077" width="2.69231" height="2.69231" fill="#007AFF"/>
</svg>
